<svg width="1580" height="452" viewBox="0 0 1580 452" fill="none" xmlns="http://www.w3.org/2000/svg">
<path d="M281.691 0.257324C223.775 0.257324 165.86 22.2386 121.896 66.2027L66.8963 11.2046C-21.0319 99.1327 -21.0319 242.868 66.8963 330.796L11.8963 385.796C99.8245 473.725 243.56 473.725 331.488 385.796L386.488 440.796C474.416 352.868 474.416 209.131 386.488 121.203L441.488 66.2027C397.524 22.2386 339.607 0.257324 281.691 0.257324ZM226.691 121.203C240.453 121.203 254.081 123.913 266.795 129.18C279.51 134.446 291.063 142.166 300.794 151.897C310.525 161.628 318.245 173.181 323.511 185.895C328.778 198.61 331.488 212.237 331.488 226C331.488 239.762 328.778 253.389 323.511 266.104C318.245 278.818 310.525 290.371 300.794 300.102C291.063 309.834 279.51 317.553 266.795 322.819C254.081 328.086 240.453 330.797 226.691 330.796C198.898 330.796 172.243 319.755 152.59 300.102C132.937 280.448 121.896 253.793 121.896 226C121.896 198.206 132.937 171.551 152.59 151.898C172.243 132.244 198.898 121.203 226.691 121.203V121.203Z" fill="#1E50FF"/>
<path opacity="0.35" d="M186.527 21.105C168.653 29.3599 151.652 40.0619 136.047 53.2222L121.896 66.2027L185.471 129.779C194.447 125.94 203.917 123.374 213.603 122.156L186.527 21.105ZM267.912 322.22C258.936 326.059 249.467 328.625 239.781 329.843L266.857 430.894C284.731 422.639 301.731 411.937 317.336 398.777L331.488 385.796L267.912 322.22Z" fill="#12131A"/>
<path d="M662.243 208.383V178.061H634.611V143.826L603.067 153.363V178.061H581.792V208.383H603.067V266.093C603.067 299.104 617.983 312.064 662.243 307.174V278.564C644.148 279.542 634.611 279.297 634.611 266.093V208.383H662.243Z" fill="white"/>
<path d="M716.363 256.577H808.551C809.285 252.42 809.774 248.263 809.774 243.617C809.774 207.671 784.098 179.06 747.907 179.06C709.515 179.06 683.351 207.181 683.351 243.617C683.351 280.052 709.271 308.173 750.353 308.173C773.828 308.173 792.167 298.637 803.661 282.009L778.229 267.336C772.849 274.428 763.068 279.563 750.842 279.563C734.213 279.563 720.764 272.716 716.363 256.577V256.577ZM715.873 232.124C719.541 216.474 731.034 207.426 747.907 207.426C761.112 207.426 774.317 214.518 778.229 232.124H715.873Z" fill="white"/>
<path d="M1397.04 144.825V196.911C1388.24 185.662 1375.28 179.06 1357.43 179.06C1324.66 179.06 1297.76 207.181 1297.76 243.616C1297.76 280.052 1324.66 308.173 1357.43 308.173C1375.28 308.173 1388.24 301.571 1397.04 290.322V308.173H1428.58V144.825H1397.04ZM1363.29 278.095C1343.73 278.095 1329.3 264.157 1329.3 243.616C1329.3 223.076 1343.73 209.137 1363.29 209.137C1382.61 209.137 1397.04 223.076 1397.04 243.616C1397.04 264.157 1382.61 278.095 1363.29 278.095Z" fill="white"/>
<path d="M1514.25 308.173C1550.2 308.173 1579.05 280.052 1579.05 243.616C1579.05 207.181 1550.2 179.06 1514.25 179.06C1478.3 179.06 1449.69 207.181 1449.69 243.616C1449.69 280.052 1478.3 308.173 1514.25 308.173ZM1514.25 277.362C1495.66 277.362 1481.24 263.424 1481.24 243.616C1481.24 223.809 1495.66 209.871 1514.25 209.871C1533.08 209.871 1547.51 223.809 1547.51 243.616C1547.51 263.424 1533.08 277.362 1514.25 277.362V277.362Z" fill="white"/>
<path d="M1078.5 179.06C1062.12 179.06 1049.4 185.174 1042.07 196.177V179.06H1010.52V308.173H1042.07V238.726C1042.07 217.452 1053.56 208.404 1068.97 208.404C1083.15 208.404 1093.18 216.963 1093.18 233.591V308.173H1124.72V229.678C1124.72 197.155 1104.42 179.06 1078.5 179.06V179.06Z" fill="white"/>
<path d="M1245.11 179.06V196.911C1236.31 185.907 1223.1 179.06 1205.25 179.06C1172.73 179.06 1145.83 207.181 1145.83 243.617C1145.83 280.052 1172.73 308.173 1205.25 308.173C1223.1 308.173 1236.31 301.326 1245.11 290.322V308.173H1276.65V179.06H1245.11ZM1211.12 278.096C1191.8 278.096 1177.37 264.157 1177.37 243.617C1177.37 223.076 1191.8 209.138 1211.12 209.138C1230.68 209.138 1245.11 223.076 1245.11 243.617C1245.11 264.157 1230.68 278.096 1211.12 278.096Z" fill="white"/>
<path d="M862.426 202.535V179.06H830.881V308.173H862.426V245.328C862.426 219.652 883.211 212.316 899.595 214.273V179.06C884.189 179.06 868.784 185.907 862.426 202.535V202.535Z" fill="white"/>
<path d="M952.247 202.535V179.06H920.702V308.173H952.247V245.328C952.247 219.652 973.032 212.316 989.416 214.273V179.06C974.011 179.06 958.605 185.907 952.247 202.535V202.535Z" fill="white"/>
</svg>
